<svg xmlns="http://www.w3.org/2000/svg" data-noselect="" width="140px" height="140px" ref="svg_canvas" preserveAspectRatio="none" version="1.1">
    <g id="shape_BwJcYnEnBE" class="icon" ref="shape_BwJcYnEnBE" key="shape_BwJcYnEnBE" transform="translate(6,16) scale(1,1)">
            <g style="display:inline"><rect fill="rgba(0,0,0,0)" width="128.95174262735" height="110.45977625715936" x="-10" y="-10"/><svg xmlns="http://www.w3.org/2000/svg" xmlns:xlink="http://www.w3.org/1999/xlink" version="1.1" id="图层_1" x="0px" y="0px" width="118.95174262735" height="100.45977625715936" viewBox="-0.10000038146972656 0 150.8999786376953 122.69999694824219" enable-background="new 0 0 150.6 122.7" xml:space="preserve" class="style-removed" preserveAspectRatio="none" data-parent="shape_BwJcYnEnBE">
<g>
	<path fill="#145C81" d="M14.4,50.3h8.6C28,26.4,49.3,8.4,74.7,8.4s46.6,18,51.7,41.9h8.6C129.7,21.7,104.7,0,74.7,0   S19.6,21.7,14.4,50.3z"/>
	<path fill="#145C81" d="M74.7,114.3c-25.4,0-46.6-18-51.7-41.9h-8.6c5.2,28.6,30.2,50.3,60.3,50.3S129.7,101,135,72.4h-8.6   C121.3,96.3,100,114.3,74.7,114.3z"/>
	<path fill="#07A9A2" d="M51.4,65.6c0.1,0,0.2,0,0.3,0c0.1,0,0.2,0,0.3,0c2.3,0,4.2-1.9,4.2-4.2v-11v-8.9c0-2,0.8-3.9,2.2-5.4   c1.4-1.4,3.3-2.2,5.4-2.2l15.5,0c6.6,0.2,12,3.1,15,7.7c-0.3,0.8-0.5,1.7-0.5,2.7c0,2.7,1.5,4.9,3.7,6.1c0.9,0.5,2,0.8,3.2,0.8   c1.1,0,2.2-0.3,3.2-0.8c2.2-1.1,3.7-3.4,3.7-6.1c0-3.5-2.6-6.3-5.9-6.8c-4.5-7.2-12.6-11.8-22.1-12c0,0-0.3,0-0.3,0l-15.4,0   c-4.3,0-8.3,1.7-11.3,4.7c-3,3-4.7,7.1-4.7,11.3v8.9v6.8H21.9h-8.4h-1.3c-1.3-1.6-3.2-2.7-5.4-2.7c-3.8,0-6.9,3.1-6.9,6.9   c0,3.8,3.1,6.9,6.9,6.9c2.2,0,4.1-1.1,5.4-2.7h1.3h8.4H51.4z"/>
	<path fill="#07A9A2" d="M143.7,54.5c-2.2,0-4.1,1.1-5.4,2.7h-2.5h-8.4H98h0c-0.3,0-0.6,0-0.8,0.1c-0.2,0-0.3,0.1-0.5,0.1   c-0.1,0-0.2,0.1-0.3,0.1c-0.2,0.1-0.3,0.2-0.5,0.2c-0.1,0-0.2,0.1-0.3,0.1c-0.2,0.1-0.3,0.3-0.5,0.4c0,0-0.1,0.1-0.1,0.1   c-0.2,0.2-0.4,0.4-0.5,0.6c0,0,0,0,0,0c-1.5,2.2-3.7,4.2-6.6,5.8c-1.2,0.7-1.9,1.8-2.1,3.1c-0.2,1.3,0.3,2.6,1.2,3.6l0.9,0.9   l9.5,9.3c0.8,0.8,1.3,1.8,1.3,3c0,1.1-0.4,2.2-1.2,3c-1.6,1.6-4.3,1.7-5.9,0.1L75.8,72.4l-4.1-3.9c-1.2-1.2-3-1.5-4.6-0.9   c-1.6,0.7-2.6,2.2-2.6,3.9v0.9v12.3c0,2.3-1.9,4.2-4.2,4.2s-4.2-1.9-4.2-4.2V84c1.6-1.3,2.7-3.2,2.7-5.4c0-2.8-1.6-5.1-4-6.2   C54,72,53,71.7,52,71.7c-1,0-2,0.2-2.9,0.6c-2.4,1.1-4,3.5-4,6.2c0,2.2,1.1,4.1,2.7,5.4v0.7c0,7,5.7,12.6,12.6,12.6   s12.6-5.7,12.6-12.6v-3.2l12.7,12.3c2.4,2.3,5.5,3.6,8.8,3.6c3.4,0,6.7-1.4,9.1-3.8c2.4-2.4,3.6-5.6,3.6-9c0-3.4-1.4-6.5-3.8-8.9   l-3.3-3.2l-3.4-3.3c1.3-1.1,2.4-2.3,3.5-3.5h27.4h8.4h2.5c1.3,1.6,3.2,2.7,5.4,2.7c3.8,0,6.9-3.1,6.9-6.9   C150.6,57.5,147.5,54.5,143.7,54.5z"/>
	<path fill="#07A9A2" d="M81.9,45.9l-13.1,0c-2.3,0-4.2,1.9-4.2,4.2c0,0.1,0,0.1,0,0.2c0.1,2.2,1.9,4,4.2,4h0l13.1,0   c2.3,0,4.1-1.8,4.2-4c0-0.1,0-0.1,0-0.2C86.1,47.8,84.2,45.9,81.9,45.9L81.9,45.9z"/>
</g>
</svg></g>
        </g>
  </svg>
