<svg xmlns="http://www.w3.org/2000/svg" data-noselect="" viewBox="48.00002148438 17.692675181267674 718 539" width="718" height="539" ref="svg_canvas" preserveAspectRatio="none" version="1.1" style="background: #ffffff;">
    
    <g id="shape_9E1o3FQheA" class="brand_name" ref="shape_9E1o3FQheA" key="shape_9E1o3FQheA" transform="translate(74.00002148438,132.24073410033998) rotate(0,343.178,189) scale(1,1)" style="cursor:move;display:inline;opacity:1;" filter="">
            <g style="display:inline"><svg xmlns="http://www.w3.org/2000/svg" xmlns:xlink="http://www.w3.org/1999/xlink" version="1.1" width="774" height="378" viewBox="0 0 774 378" preserveAspectRatio="none" data-parent="shape_9E1o3FQheA"><rect fill="rgba(0,0,0,0)" width="558" height="54" x="54" y="162"/><g data-width="557.28" transform="translate(54.360000000000014, 0)"><path d="M37.64-13.12L37.42-13.12Q38.88-12.20 40.39-11.15Q41.90-10.10 43.47-8.86L43.47-8.86Q44.06-8.42 44.50-7.86Q44.93-7.29 44.93-6.53L44.93-6.53Q44.93-5.45 44.17-4.70Q43.42-3.94 42.34-3.94L42.34-3.94Q41.42-3.94 40.50-4.70L40.50-4.70Q38.29-6.32 35.96-7.83Q33.64-9.34 31.13-10.53Q28.62-11.72 25.92-12.42Q23.22-13.12 20.30-13.12L20.30-13.12L9.56-13.12Q8.86-13.01 8.37-12.47Q7.88-11.93 7.88-11.12L7.88-11.12L7.88-6.53Q7.88-5.45 7.10-4.70Q6.32-3.94 5.29-3.94L5.29-3.94Q4.21-3.94 3.46-4.70Q2.70-5.45 2.70-6.53L2.70-6.53L2.70-11.72Q2.70-13.07 3.21-14.28Q3.73-15.50 4.59-16.39Q5.45-17.28 6.64-17.79Q7.83-18.31 9.23-18.31L9.23-18.31L37.85-18.31Q38.66-18.31 39.28-18.87Q39.91-19.44 39.91-20.30L39.91-20.30Q39.91-21.11 39.28-21.71Q38.66-22.30 37.85-22.30L37.85-22.30L5.29-22.30Q4.21-22.30 3.46-23.06Q2.70-23.81 2.70-24.89L2.70-24.89Q2.70-25.97 3.46-26.73Q4.21-27.49 5.29-27.49L5.29-27.49L37.64-27.49Q39.15-27.49 40.47-26.92Q41.80-26.35 42.80-25.38Q43.79-24.41 44.36-23.11Q44.93-21.82 44.93-20.30L44.93-20.30Q44.93-18.79 44.36-17.50Q43.79-16.20 42.80-15.23Q41.80-14.26 40.47-13.69Q39.15-13.12 37.64-13.12L37.64-13.12Z" transform="translate(0 206) " fill="rgb(25, 25, 25)" stroke="rgb(25, 25, 25)" stroke-width="0.09" data-glyph-w="47.628" data-glyph-h="51.3" data-glyph-ascender="43.2" data-glyph-descender="-8.1"/><path d="M2.70-24.89L2.70-24.89Q2.70-25.97 3.46-26.73Q4.21-27.49 5.29-27.49L5.29-27.49L43.58-27.49Q44.66-27.49 45.41-26.73Q46.17-25.97 46.17-24.89L46.17-24.89Q46.17-23.81 45.41-23.06Q44.66-22.30 43.58-22.30L43.58-22.30L5.29-22.30Q4.21-22.30 3.46-23.06Q2.70-23.81 2.70-24.89ZM43.58-3.94L9.29-3.94Q8.10-3.94 6.91-4.46Q5.72-4.97 4.81-5.89Q3.89-6.80 3.29-8.10Q2.70-9.40 2.70-11.02L2.70-11.02L2.70-15.88Q2.70-17.33 3.54-17.82Q4.37-18.31 6.16-18.31L6.16-18.31L42.39-18.31Q43.47-18.31 44.23-17.55Q44.98-16.79 44.98-15.71L44.98-15.71Q44.98-14.63 44.23-13.88Q43.47-13.12 42.39-13.12L42.39-13.12L7.88-13.12L7.88-10.48Q7.88-9.94 8.34-9.53Q8.80-9.13 9.56-9.13L9.56-9.13L43.58-9.13Q44.66-9.13 45.41-8.37Q46.17-7.61 46.17-6.53L46.17-6.53Q46.17-5.45 45.41-4.70Q44.66-3.94 43.58-3.94L43.58-3.94Z" transform="translate(47.628 206) " fill="rgb(25, 25, 25)" stroke="rgb(25, 25, 25)" stroke-width="0.09" data-glyph-w="48.87" data-glyph-h="51.3" data-glyph-ascender="43.2" data-glyph-descender="-8.1"/><path d="M19.98-21.76L7.29-4.91Q6.48-3.94 5.29-3.94L5.29-3.94Q4.21-3.94 3.46-4.70Q2.70-5.45 2.70-6.53L2.70-6.53Q2.70-7.51 3.24-8.10L3.24-8.10L16.36-25.76Q17.28-27 18.79-27.78Q20.30-28.57 22.03-28.57L22.03-28.57Q23.65-28.57 25.11-27.86Q26.57-27.16 27.49-25.92L27.49-25.92L40.61-8.37Q40.93-7.99 41.15-7.53Q41.36-7.07 41.36-6.53L41.36-6.53Q41.36-5.45 40.61-4.70Q39.85-3.94 38.77-3.94L38.77-3.94Q37.48-3.94 36.72-4.97L36.72-4.97L24.14-21.76Q23.76-22.19 23.19-22.71Q22.63-23.22 22.03-23.22L22.03-23.22Q21.44-23.22 20.87-22.71Q20.30-22.19 19.98-21.76L19.98-21.76Z" transform="translate(96.49799999999999 206) " fill="rgb(25, 25, 25)" stroke="rgb(25, 25, 25)" stroke-width="0.09" data-glyph-w="44.064" data-glyph-h="51.3" data-glyph-ascender="43.2" data-glyph-descender="-8.1"/><path d="M2.70-15.71L2.70-15.71Q2.70-17.77 3.38-19.84Q4.05-21.92 5.35-23.63Q6.64-25.33 8.48-26.41Q10.31-27.49 12.64-27.49L12.64-27.49L44.12-27.49Q45.20-27.49 45.95-26.73Q46.71-25.97 46.71-24.89L46.71-24.89Q46.71-23.81 45.95-23.06Q45.20-22.30 44.12-22.30L44.12-22.30L13.77-22.30Q11.88-22.30 10.72-21.63Q9.56-20.95 8.88-19.98Q8.21-19.01 7.96-17.85Q7.72-16.69 7.72-15.71L7.72-15.71Q7.72-14.74 7.96-13.58Q8.21-12.42 8.88-11.45Q9.56-10.48 10.72-9.80Q11.88-9.13 13.77-9.13L13.77-9.13L44.12-9.13Q45.20-9.13 45.95-8.37Q46.71-7.61 46.71-6.53L46.71-6.53Q46.71-5.45 45.95-4.70Q45.20-3.94 44.12-3.94L44.12-3.94L12.10-3.94Q9.88-3.94 8.15-5.02Q6.43-6.10 5.21-7.80Q4.00-9.50 3.35-11.61Q2.70-13.72 2.70-15.71Z" transform="translate(140.56199999999998 206) " fill="rgb(25, 25, 25)" stroke="rgb(25, 25, 25)" stroke-width="0.09" data-glyph-w="49.41" data-glyph-h="51.3" data-glyph-ascender="43.2" data-glyph-descender="-8.1"/><path d="M5.29-27.49L42.44-27.49Q43.52-27.49 44.28-26.73Q45.04-25.97 45.04-24.89L45.04-24.89Q45.04-23.81 44.28-23.06Q43.52-22.30 42.44-22.30L42.44-22.30L26.46-22.30L26.46-6.53Q26.46-5.45 25.70-4.70Q24.95-3.94 23.87-3.94L23.87-3.94Q22.79-3.94 22.03-4.70Q21.28-5.45 21.28-6.53L21.28-6.53L21.28-22.30L5.08-22.30Q4.10-22.41 3.40-23.14Q2.70-23.87 2.70-24.89L2.70-24.89Q2.70-25.97 3.46-26.73Q4.21-27.49 5.29-27.49L5.29-27.49Z" transform="translate(189.97199999999998 206) " fill="rgb(25, 25, 25)" stroke="rgb(25, 25, 25)" stroke-width="0.09" data-glyph-w="47.736" data-glyph-h="51.3" data-glyph-ascender="43.2" data-glyph-descender="-8.1"/><path d="M5.29-18.31L21.28-18.31Q22.36-18.31 23.11-17.55Q23.87-16.79 23.87-15.71L23.87-15.71Q23.87-14.63 23.11-13.88Q22.36-13.12 21.28-13.12L21.28-13.12L5.08-13.12Q4.10-13.23 3.40-13.96Q2.70-14.69 2.70-15.71L2.70-15.71Q2.70-16.79 3.46-17.55Q4.21-18.31 5.29-18.31L5.29-18.31Z" transform="translate(237.70799999999997 206) " fill="rgb(25, 25, 25)" stroke="rgb(25, 25, 25)" stroke-width="0.09" data-glyph-w="26.568" data-glyph-h="51.3" data-glyph-ascender="43.2" data-glyph-descender="-8.1"/><path d="M7.88-9.13L35.64-9.13Q37.48-9.13 38.66-9.80Q39.85-10.48 40.53-11.45Q41.20-12.42 41.45-13.58Q41.69-14.74 41.69-15.71L41.69-15.71Q41.69-16.69 41.45-17.85Q41.20-19.01 40.53-19.98Q39.85-20.95 38.66-21.63Q37.48-22.30 35.64-22.30L35.64-22.30L5.29-22.30Q4.21-22.30 3.46-23.06Q2.70-23.81 2.70-24.89L2.70-24.89Q2.70-25.97 3.46-26.73Q4.21-27.49 5.29-27.49L5.29-27.49L36.77-27.49Q39.10-27.49 40.93-26.41Q42.77-25.33 44.06-23.63Q45.36-21.92 46.03-19.84Q46.71-17.77 46.71-15.71L46.71-15.71Q46.71-13.72 46.06-11.66Q45.41-9.61 44.20-7.94Q42.98-6.26 41.26-5.16Q39.53-4.05 37.31-3.94L37.31-3.94L5.29-3.94Q4.21-3.94 3.46-4.70Q2.70-5.45 2.70-6.53L2.70-6.53L2.70-15.71Q2.70-16.79 3.46-17.55Q4.21-18.31 5.29-18.31L5.29-18.31Q6.37-18.31 7.13-17.55Q7.88-16.79 7.88-15.71L7.88-15.71L7.88-9.13Z" transform="translate(264.27599999999995 206) " fill="rgb(25, 25, 25)" stroke="rgb(25, 25, 25)" stroke-width="0.09" data-glyph-w="49.41" data-glyph-h="51.3" data-glyph-ascender="43.2" data-glyph-descender="-8.1"/><path d="M44.98-24.89L44.98-6.53Q44.98-5.45 44.23-4.70Q43.47-3.94 42.39-3.94L42.39-3.94Q41.31-3.94 40.55-4.70Q39.80-5.45 39.80-6.53L39.80-6.53L39.80-13.12L7.88-13.12L7.88-6.53Q7.88-5.45 7.13-4.70Q6.37-3.94 5.29-3.94L5.29-3.94Q4.21-3.94 3.46-4.70Q2.70-5.45 2.70-6.53L2.70-6.53L2.70-24.89Q2.70-25.97 3.46-26.73Q4.21-27.49 5.29-27.49L5.29-27.49Q6.37-27.49 7.13-26.73Q7.88-25.97 7.88-24.89L7.88-24.89L7.88-18.31L39.80-18.31L39.80-24.89Q39.80-25.97 40.55-26.73Q41.31-27.49 42.39-27.49L42.39-27.49Q43.47-27.49 44.23-26.73Q44.98-25.97 44.98-24.89L44.98-24.89Z" transform="translate(313.6859999999999 206) " fill="rgb(25, 25, 25)" stroke="rgb(25, 25, 25)" stroke-width="0.09" data-glyph-w="47.682" data-glyph-h="51.3" data-glyph-ascender="43.2" data-glyph-descender="-8.1"/><path d="M13.77-9.13L35.59-9.13Q37.42-9.13 38.61-9.80Q39.80-10.48 40.47-11.45Q41.15-12.42 41.39-13.58Q41.63-14.74 41.63-15.71L41.63-15.71Q41.63-16.69 41.39-17.85Q41.15-19.01 40.47-19.98Q39.80-20.95 38.61-21.63Q37.42-22.30 35.59-22.30L35.59-22.30L13.77-22.30Q11.88-22.30 10.72-21.63Q9.56-20.95 8.88-19.98Q8.21-19.01 7.96-17.85Q7.72-16.69 7.72-15.71L7.72-15.71Q7.72-14.74 7.96-13.58Q8.21-12.42 8.88-11.45Q9.56-10.48 10.72-9.80Q11.88-9.13 13.77-9.13L13.77-9.13ZM46.66-15.71L46.66-15.71Q46.66-13.66 45.98-11.58Q45.31-9.50 44.01-7.80Q42.71-6.10 40.88-5.02Q39.04-3.94 36.72-3.94L36.72-3.94L12.10-3.94Q9.88-4.05 8.15-5.16Q6.43-6.26 5.21-7.94Q4.00-9.61 3.35-11.66Q2.70-13.72 2.70-15.71L2.70-15.71Q2.70-17.77 3.38-19.84Q4.05-21.92 5.35-23.63Q6.64-25.33 8.48-26.41Q10.31-27.49 12.64-27.49L12.64-27.49L37.26-27.49Q39.47-27.38 41.20-26.27Q42.93-25.16 44.14-23.49Q45.36-21.82 46.01-19.76Q46.66-17.71 46.66-15.71Z" transform="translate(361.36799999999994 206) " fill="rgb(25, 25, 25)" stroke="rgb(25, 25, 25)" stroke-width="0.09" data-glyph-w="49.356" data-glyph-h="51.3" data-glyph-ascender="43.2" data-glyph-descender="-8.1"/><path d="M13.77-9.13L35.59-9.13Q37.42-9.13 38.61-9.80Q39.80-10.48 40.47-11.45Q41.15-12.42 41.39-13.58Q41.63-14.74 41.63-15.71L41.63-15.71Q41.63-16.69 41.39-17.85Q41.15-19.01 40.47-19.98Q39.80-20.95 38.61-21.63Q37.42-22.30 35.59-22.30L35.59-22.30L13.77-22.30Q11.88-22.30 10.72-21.63Q9.56-20.95 8.88-19.98Q8.21-19.01 7.96-17.85Q7.72-16.69 7.72-15.71L7.72-15.71Q7.72-14.74 7.96-13.58Q8.21-12.42 8.88-11.45Q9.56-10.48 10.72-9.80Q11.88-9.13 13.77-9.13L13.77-9.13ZM46.66-15.71L46.66-15.71Q46.66-13.66 45.98-11.58Q45.31-9.50 44.01-7.80Q42.71-6.10 40.88-5.02Q39.04-3.94 36.72-3.94L36.72-3.94L12.10-3.94Q9.88-4.05 8.15-5.16Q6.43-6.26 5.21-7.94Q4.00-9.61 3.35-11.66Q2.70-13.72 2.70-15.71L2.70-15.71Q2.70-17.77 3.38-19.84Q4.05-21.92 5.35-23.63Q6.64-25.33 8.48-26.41Q10.31-27.49 12.64-27.49L12.64-27.49L37.26-27.49Q39.47-27.38 41.20-26.27Q42.93-25.16 44.14-23.49Q45.36-21.82 46.01-19.76Q46.66-17.71 46.66-15.71Z" transform="translate(410.72399999999993 206) " fill="rgb(25, 25, 25)" stroke="rgb(25, 25, 25)" stroke-width="0.09" data-glyph-w="49.356" data-glyph-h="51.3" data-glyph-ascender="43.2" data-glyph-descender="-8.1"/><path d="M7.83-24.89L7.83-18.31L20.30-18.31Q23.11-18.31 25.81-19.04Q28.51-19.76 31.08-20.95Q33.64-22.14 35.99-23.65Q38.34-25.16 40.50-26.73L40.50-26.73Q41.42-27.49 42.34-27.49L42.34-27.49Q43.42-27.49 44.17-26.73Q44.93-25.97 44.93-24.89L44.93-24.89Q44.93-24.14 44.50-23.57Q44.06-23.00 43.47-22.57L43.47-22.57Q42.07-21.49 40.77-20.55Q39.47-19.60 38.18-18.79Q36.88-17.98 35.51-17.23Q34.13-16.47 32.56-15.71L32.56-15.71Q34.13-14.96 35.51-14.20Q36.88-13.45 38.18-12.64Q39.47-11.83 40.77-10.88Q42.07-9.94 43.47-8.86L43.47-8.86Q44.06-8.42 44.50-7.86Q44.93-7.29 44.93-6.53L44.93-6.53Q44.93-5.45 44.17-4.70Q43.42-3.94 42.34-3.94L42.34-3.94Q41.42-3.94 40.50-4.70L40.50-4.70Q38.29-6.32 35.94-7.83Q33.59-9.34 31.05-10.53Q28.51-11.72 25.81-12.42Q23.11-13.12 20.30-13.12L20.30-13.12L7.83-13.12L7.83-6.53Q7.83-5.45 7.07-4.70Q6.32-3.94 5.29-3.94L5.29-3.94Q4.21-3.94 3.46-4.70Q2.70-5.45 2.70-6.53L2.70-6.53L2.70-24.89Q2.70-25.97 3.46-26.73Q4.21-27.49 5.24-27.49L5.24-27.49Q6.32-27.49 7.07-26.73Q7.83-25.97 7.83-24.89L7.83-24.89Z" transform="translate(460.0799999999999 206) " fill="rgb(25, 25, 25)" stroke="rgb(25, 25, 25)" stroke-width="0.09" data-glyph-w="47.628" data-glyph-h="51.3" data-glyph-ascender="43.2" data-glyph-descender="-8.1"/><path d="M39.85-13.12L9.88-13.12Q8.37-13.12 7.07-13.69Q5.78-14.26 4.81-15.23Q3.83-16.20 3.27-17.50Q2.70-18.79 2.70-20.30L2.70-20.30Q2.70-21.82 3.27-23.11Q3.83-24.41 4.81-25.38Q5.78-26.35 7.07-26.92Q8.37-27.49 9.88-27.49L9.88-27.49L42.66-27.49Q43.74-27.49 44.50-26.73Q45.25-25.97 45.25-24.89L45.25-24.89Q45.25-23.81 44.50-23.06Q43.74-22.30 42.66-22.30L42.66-22.30L9.77-22.30Q8.96-22.30 8.34-21.73Q7.72-21.17 7.72-20.30L7.72-20.30Q7.72-19.49 8.34-18.90Q8.96-18.31 9.77-18.31L9.77-18.31L39.64-18.31Q41.15-18.31 42.47-17.74Q43.79-17.17 44.77-16.20Q45.74-15.23 46.30-13.90Q46.87-12.58 46.87-11.07L46.87-11.07Q46.87-9.56 46.30-8.26Q45.74-6.97 44.77-5.99Q43.79-5.02 42.47-4.48Q41.15-3.94 39.64-3.94L39.64-3.94L6.91-3.94Q5.83-3.94 5.08-4.70Q4.32-5.45 4.32-6.53L4.32-6.53Q4.32-7.61 5.08-8.37Q5.83-9.13 6.91-9.13L6.91-9.13L39.85-9.13Q40.66-9.13 41.26-9.69Q41.85-10.26 41.85-11.07L41.85-11.07Q41.85-11.93 41.26-12.53Q40.66-13.12 39.85-13.12L39.85-13.12Z" transform="translate(507.7079999999999 206) " fill="rgb(25, 25, 25)" stroke="rgb(25, 25, 25)" stroke-width="0.09" data-glyph-w="49.572" data-glyph-h="51.3" data-glyph-ascender="43.2" data-glyph-descender="-8.1"/></g></svg></g>
        </g>
  </svg>